# Blender v2.76 (sub 0) OBJ File: 'room.blend'
# www.blender.org
v -9.000004 0.188392 9.999997
v -9.000004 0.188392 9.999997
v 9.049994 0.188392 10.000006
v 9.049994 0.188392 10.000006
v -9.000000 0.188392 -9.000000
v 9.050005 0.188392 -8.999995
v -9.000004 9.245374 9.999997
v -9.000000 9.245374 -9.000000
v 9.049994 9.245374 10.000006
v 9.050005 9.245374 -8.999995
vt 1.986959 -1.816583
vt 3.472118 -1.816582
vt 3.472118 1.339675
vt -0.932272 1.339668
vt -0.932272 -1.816583
vt -0.013908 -1.818158
vt 0.076348 -1.818158
vt -2.417431 1.339666
vt -2.417430 -1.816591
vt 1.986959 1.339668
vt 1.986960 2.824827
vt -0.932280 2.824827
vn -1.000000 0.000000 -0.000000
vn 0.000000 1.000000 0.000000
vn 0.000000 0.000000 1.000000
vn 1.000000 0.000000 0.000000
s off
f 4/1/1 9/2/1 10/3/1
f 5/4/2 2/5/2 4/1/2
f 1/6/3 3/7/3 4/1/3
f 5/4/4 8/8/4 7/9/4
f 6/10/3 10/11/3 8/12/3
f 6/10/1 4/1/1 10/3/1
f 6/10/2 5/4/2 4/1/2
f 2/5/3 1/6/3 4/1/3
f 2/5/4 5/4/4 7/9/4
f 5/4/3 6/10/3 8/12/3
