# Blender v2.76 (sub 0) OBJ File: 'room.blend'
# www.blender.org
v -10.000000 0.000000 10.000000
v -10.000000 10.000000 10.000000
v -10.000000 0.000000 -10.000000
v -10.000000 10.000000 -10.000000
v 10.000000 0.000000 10.000000
v 10.000000 10.000000 10.000000
v 10.000000 0.000000 -10.000000
v 10.000000 10.000000 -10.000000
vt 0.490699 5.485413
vt 3.802548 5.485413
vt 3.802548 2.173565
vt 7.114395 2.173565
vt 7.114395 -1.138283
vt 3.802548 -1.138284
vt 3.802548 -4.450132
vt 0.490699 -4.450132
vt 0.490699 -1.138284
vt -2.821149 -1.138284
vt -2.821149 2.173565
vt 0.490699 2.173565
vt -6.132998 -1.138284
vt -6.132998 2.173565
vn 1.000000 0.000000 0.000000
vn 0.000000 0.000000 1.000000
vn -1.000000 0.000000 0.000000
vn 0.000000 0.000000 -1.000000
vn 0.000000 1.000000 0.000000
vn 0.000000 -1.000000 0.000000
s off
f 1/1/1 3/2/1 4/3/1
f 3/4/2 7/5/2 8/6/2
f 7/7/3 5/8/3 6/9/3
f 5/10/4 1/11/4 2/12/4
f 5/10/5 7/13/5 3/14/5
f 2/12/6 4/3/6 8/6/6
f 2/12/1 1/1/1 4/3/1
f 4/3/2 3/4/2 8/6/2
f 8/6/3 7/7/3 6/9/3
f 6/9/4 5/10/4 2/12/4
f 1/11/5 5/10/5 3/14/5
f 6/9/6 2/12/6 8/6/6
